<svg viewBox="0 0 500 500" xmlns="http://www.w3.org/2000/svg">
  <defs></defs>
  <path style="fill: rgb(43, 175, 143);" d="M 361.907 108.291 C 369.527 125.096 391.395 157.026 400 166.25 C 400 166.25 321.725 274.131 371.223 359.031 C 161.995 195.089 322.355 59.202 346.161 27.894 C 347.068 42.586 352.578 87.72 361.907 108.291 Z" transform="matrix(-1, 0, 0, -1, 665.026917, 386.924992)"></path>
  <path style="fill: rgb(43, 175, 143);" d="M 258.306 475 C 418.115 241.075 115.837 212.448 223.409 27.894 C -60.617 250.499 230.759 302.857 258.306 475 Z"></path>
  <circle style="fill: rgb(93, 226, 191);" cx="255.101" cy="105.443" r="38.014" transform="matrix(1.000675, 0, 0, 1, -0.067537, 0)"></circle>
  <circle style="fill: rgb(167, 237, 219);" cx="255.101" cy="105.443" r="22.809" transform="matrix(1.000675, 0, 0, 1, -0.067537, 0)"></circle>
  <path style="fill: rgb(40, 204, 161);" d="M 224.888 25 L 168.433 74.084 C 115.721 138.613 213.292 232.371 268.179 244.433 C 247.53 201.688 162.369 137.062 224.888 25 Z"></path>
  <path style="fill: rgb(40, 204, 161);" d="M 263.739 220.956 C 313.631 156.363 308.405 68.606 293.623 27.782 C 294.922 26.042 343.511 68.812 341.806 71.81 C 345.167 69.89 333.708 181.014 263.739 220.956 Z"></path>
  <path style="fill: rgb(32, 145, 123);" d="M 257.535 474.241 C 221.874 352.423 154.863 335.479 110.222 246.968 C 107.359 239.593 99.808 219.071 100.349 207.342 C 144.607 212.93 258.736 372.51 257.535 474.241 Z"></path>
  <path style="fill: rgb(32, 145, 123);" d="M 319.376 357.545 C 365.73 282.406 382.965 234.501 389.906 145.922 C 396.184 154.833 402.654 196.966 399.871 206.839 C 399.582 272.016 342.808 334.044 319.376 357.545 Z"></path>
</svg>